<svg width="911.6075439453125px" height="387.2px" xmlns="http://www.w3.org/2000/svg" viewBox="-205.80377197265625 -118.6 911.6075439453125 387.2" style="background: rgba(238, 238, 238, 0);" preserveAspectRatio="xMidYMid"><defs><filter id="editing-hole" x="-100%" y="-100%" width="300%" height="300%"><feFlood flood-color="#000000" result="black"></feFlood><feMorphology operator="dilate" radius="2" in="SourceGraphic" result="erode"></feMorphology><feGaussianBlur in="erode" stdDeviation="4" result="blur"></feGaussianBlur><feOffset in="blur" dx="2" dy="2" result="offset"></feOffset><feComposite operator="atop" in="offset" in2="black" result="merge"></feComposite><feComposite operator="in" in="merge" in2="SourceGraphic" result="inner-shadow"></feComposite></filter></defs><g filter="url(#editing-hole)"><g transform="translate(-81.60001850128174, 146.1999969482422)"><path d="M14.80 0L14.80-137.60L133.80-137.60L133.80-104.60L59-104.60L59-85.60L123-85.60L123-54L59-54L59-33L135.20-33L135.20 0L14.80 0ZM159.20 0L159.20-137.60L203.40-137.60L203.40-35.20L274-35.20L274 0L159.20 0ZM384.20-137.60L384.20-137.60Q394.60-137.60 403.30-133.30L403.30-133.30L403.30-133.30Q412-129 417.10-121.20L417.10-121.20L417.10-121.20Q422.20-113.40 422.20-103.80L422.20-103.80L422.20-103.80Q422.20-78.40 399.20-71.80L399.20-71.80L399.20-71L399.20-71Q425.40-65 425.40-36.60L425.40-36.60L425.40-36.60Q425.40-25.80 420.10-17.50L420.10-17.50L420.10-17.50Q414.80-9.20 405.60-4.60L405.60-4.60L405.60-4.60Q396.40 0 385.40 0L385.40 0L292.60 0L292.60-137.60L384.20-137.60ZM336.80-107.40L336.80-84L367.20-84L367.20-84Q371.60-84 374.50-87.10L374.50-87.10L374.50-87.10Q377.40-90.20 377.40-94.80L377.40-94.80L377.40-96.80L377.40-96.80Q377.40-101.20 374.40-104.30L374.40-104.30L374.40-104.30Q371.40-107.40 367.20-107.40L367.20-107.40L336.80-107.40ZM336.80-55.60L336.80-32L370.40-32L370.40-32Q374.80-32 377.70-35.10L377.70-35.10L377.70-35.10Q380.60-38.20 380.60-42.80L380.60-42.80L380.60-44.80L380.60-44.80Q380.60-49.40 377.70-52.50L377.70-52.50L377.70-52.50Q374.80-55.60 370.40-55.60L370.40-55.60L336.80-55.60ZM494.40 0L450.20 0L450.20-137.60L494.40-137.60L494.40 0ZM583.80-140L583.80-140Q610.20-140 627.20-129.30L627.20-129.30L627.20-129.30Q644.20-118.60 644.60-97.60L644.60-97.60L644.60-95.20L603.20-95.20L603.20-96L603.20-96Q603.20-102 598.80-106L598.80-106L598.80-106Q594.40-110 585.40-110L585.40-110L585.40-110Q576.60-110 571.90-107.40L571.90-107.40L571.90-107.40Q567.20-104.80 567.20-101L567.20-101L567.20-101Q567.20-95.60 573.60-93L573.60-93L573.60-93Q580-90.40 594.20-87.60L594.20-87.60L594.20-87.60Q610.80-84.20 621.50-80.50L621.50-80.50L621.50-80.50Q632.20-76.80 640.20-68.40L640.20-68.40L640.20-68.40Q648.20-60 648.40-45.60L648.40-45.60L648.40-45.60Q648.40-21.20 631.90-9.40L631.90-9.40L631.90-9.40Q615.40 2.40 587.80 2.40L587.80 2.40L587.80 2.40Q555.60 2.40 537.70-8.40L537.70-8.40L537.70-8.40Q519.80-19.20 519.80-46.60L519.80-46.60L561.60-46.60L561.60-46.60Q561.60-36.20 567-32.70L567-32.70L567-32.70Q572.40-29.20 583.80-29.20L583.80-29.20L583.80-29.20Q592.20-29.20 597.70-31L597.70-31L597.70-31Q603.20-32.80 603.20-38.40L603.20-38.40L603.20-38.40Q603.20-43.40 597.10-45.90L597.10-45.90L597.10-45.90Q591-48.40 577.20-51.20L577.20-51.20L577.20-51.20Q560.40-54.80 549.40-58.70L549.40-58.70L549.40-58.70Q538.40-62.60 530.20-71.60L530.20-71.60L530.20-71.60Q522-80.60 522-96L522-96L522-96Q522-118.60 539.50-129.30L539.50-129.30L539.50-129.30Q557-140 583.80-140L583.80-140Z" fill="#203a59"></path></g></g><style>text {
  font-size: 64px;
  font-family: Arial Black;
  dominant-baseline: central;
  text-anchor: middle;
}</style></svg>